<?xml version="1.0" encoding="utf-8"?>
<svg xmlns="http://www.w3.org/2000/svg" xmlns:xlink="http://www.w3.org/1999/xlink" width="600" height="400" viewBox="0 0 2400 1600">
<defs>
  <clipPath id="clip080">
    <rect x="0" y="0" width="2400" height="1600"/>
  </clipPath>
</defs>
<path clip-path="url(#clip080)" d="
M0 1600 L2400 1600 L2400 0 L0 0  Z
  " fill="#ffffff" fill-rule="evenodd" fill-opacity="1"/>
<defs>
  <clipPath id="clip081">
    <rect x="480" y="0" width="1681" height="1600"/>
  </clipPath>
</defs>
<path clip-path="url(#clip080)" d="
M202.177 1486.45 L2352.76 1486.45 L2352.76 47.2441 L202.177 47.2441  Z
  " fill="#ffffff" fill-rule="evenodd" fill-opacity="1"/>
<defs>
  <clipPath id="clip082">
    <rect x="202" y="47" width="2152" height="1440"/>
  </clipPath>
</defs>
<polyline clip-path="url(#clip082)" style="stroke:#000000; stroke-linecap:butt; stroke-linejoin:round; stroke-width:2; stroke-opacity:0.1; fill:none" points="
  407.463,1486.45 407.463,47.2441 
  "/>
<polyline clip-path="url(#clip082)" style="stroke:#000000; stroke-linecap:butt; stroke-linejoin:round; stroke-width:2; stroke-opacity:0.1; fill:none" points="
  624.964,1486.45 624.964,47.2441 
  "/>
<polyline clip-path="url(#clip082)" style="stroke:#000000; stroke-linecap:butt; stroke-linejoin:round; stroke-width:2; stroke-opacity:0.1; fill:none" points="
  842.465,1486.45 842.465,47.2441 
  "/>
<polyline clip-path="url(#clip082)" style="stroke:#000000; stroke-linecap:butt; stroke-linejoin:round; stroke-width:2; stroke-opacity:0.1; fill:none" points="
  1059.97,1486.45 1059.97,47.2441 
  "/>
<polyline clip-path="url(#clip082)" style="stroke:#000000; stroke-linecap:butt; stroke-linejoin:round; stroke-width:2; stroke-opacity:0.1; fill:none" points="
  1277.47,1486.45 1277.47,47.2441 
  "/>
<polyline clip-path="url(#clip082)" style="stroke:#000000; stroke-linecap:butt; stroke-linejoin:round; stroke-width:2; stroke-opacity:0.1; fill:none" points="
  1494.97,1486.45 1494.97,47.2441 
  "/>
<polyline clip-path="url(#clip082)" style="stroke:#000000; stroke-linecap:butt; stroke-linejoin:round; stroke-width:2; stroke-opacity:0.1; fill:none" points="
  1712.47,1486.45 1712.47,47.2441 
  "/>
<polyline clip-path="url(#clip082)" style="stroke:#000000; stroke-linecap:butt; stroke-linejoin:round; stroke-width:2; stroke-opacity:0.1; fill:none" points="
  1929.97,1486.45 1929.97,47.2441 
  "/>
<polyline clip-path="url(#clip082)" style="stroke:#000000; stroke-linecap:butt; stroke-linejoin:round; stroke-width:2; stroke-opacity:0.1; fill:none" points="
  2147.47,1486.45 2147.47,47.2441 
  "/>
<polyline clip-path="url(#clip080)" style="stroke:#000000; stroke-linecap:butt; stroke-linejoin:round; stroke-width:4; stroke-opacity:1; fill:none" points="
  202.177,1486.45 2352.76,1486.45 
  "/>
<polyline clip-path="url(#clip080)" style="stroke:#000000; stroke-linecap:butt; stroke-linejoin:round; stroke-width:4; stroke-opacity:1; fill:none" points="
  407.463,1486.45 407.463,1467.55 
  "/>
<polyline clip-path="url(#clip080)" style="stroke:#000000; stroke-linecap:butt; stroke-linejoin:round; stroke-width:4; stroke-opacity:1; fill:none" points="
  624.964,1486.45 624.964,1467.55 
  "/>
<polyline clip-path="url(#clip080)" style="stroke:#000000; stroke-linecap:butt; stroke-linejoin:round; stroke-width:4; stroke-opacity:1; fill:none" points="
  842.465,1486.45 842.465,1467.55 
  "/>
<polyline clip-path="url(#clip080)" style="stroke:#000000; stroke-linecap:butt; stroke-linejoin:round; stroke-width:4; stroke-opacity:1; fill:none" points="
  1059.97,1486.45 1059.97,1467.55 
  "/>
<polyline clip-path="url(#clip080)" style="stroke:#000000; stroke-linecap:butt; stroke-linejoin:round; stroke-width:4; stroke-opacity:1; fill:none" points="
  1277.47,1486.45 1277.47,1467.55 
  "/>
<polyline clip-path="url(#clip080)" style="stroke:#000000; stroke-linecap:butt; stroke-linejoin:round; stroke-width:4; stroke-opacity:1; fill:none" points="
  1494.97,1486.45 1494.97,1467.55 
  "/>
<polyline clip-path="url(#clip080)" style="stroke:#000000; stroke-linecap:butt; stroke-linejoin:round; stroke-width:4; stroke-opacity:1; fill:none" points="
  1712.47,1486.45 1712.47,1467.55 
  "/>
<polyline clip-path="url(#clip080)" style="stroke:#000000; stroke-linecap:butt; stroke-linejoin:round; stroke-width:4; stroke-opacity:1; fill:none" points="
  1929.97,1486.45 1929.97,1467.55 
  "/>
<polyline clip-path="url(#clip080)" style="stroke:#000000; stroke-linecap:butt; stroke-linejoin:round; stroke-width:4; stroke-opacity:1; fill:none" points="
  2147.47,1486.45 2147.47,1467.55 
  "/>
<path clip-path="url(#clip080)" d="M317.405 1544.91 L333.725 1544.91 L333.725 1548.85 L311.78 1548.85 L311.78 1544.91 Q314.442 1542.16 319.026 1537.53 Q323.632 1532.88 324.813 1531.53 Q327.058 1529.01 327.938 1527.27 Q328.84 1525.51 328.84 1523.82 Q328.84 1521.07 326.896 1519.33 Q324.975 1517.6 321.873 1517.6 Q319.674 1517.6 317.22 1518.36 Q314.79 1519.13 312.012 1520.68 L312.012 1515.95 Q314.836 1514.82 317.29 1514.24 Q319.743 1513.66 321.78 1513.66 Q327.151 1513.66 330.345 1516.35 Q333.54 1519.03 333.54 1523.52 Q333.54 1525.65 332.729 1527.57 Q331.942 1529.47 329.836 1532.07 Q329.257 1532.74 326.155 1535.95 Q323.053 1539.15 317.405 1544.91 Z" fill="#000000" fill-rule="evenodd" fill-opacity="1" /><path clip-path="url(#clip080)" d="M353.539 1517.37 Q349.928 1517.37 348.1 1520.93 Q346.294 1524.47 346.294 1531.6 Q346.294 1538.71 348.1 1542.27 Q349.928 1545.82 353.539 1545.82 Q357.174 1545.82 358.979 1542.27 Q360.808 1538.71 360.808 1531.6 Q360.808 1524.47 358.979 1520.93 Q357.174 1517.37 353.539 1517.37 M353.539 1513.66 Q359.35 1513.66 362.405 1518.27 Q365.484 1522.85 365.484 1531.6 Q365.484 1540.33 362.405 1544.94 Q359.35 1549.52 353.539 1549.52 Q347.729 1549.52 344.651 1544.94 Q341.595 1540.33 341.595 1531.6 Q341.595 1522.85 344.651 1518.27 Q347.729 1513.66 353.539 1513.66 Z" fill="#000000" fill-rule="evenodd" fill-opacity="1" /><path clip-path="url(#clip080)" d="M377.729 1544.91 L394.048 1544.91 L394.048 1548.85 L372.104 1548.85 L372.104 1544.91 Q374.766 1542.16 379.349 1537.53 Q383.956 1532.88 385.136 1531.53 Q387.382 1529.01 388.261 1527.27 Q389.164 1525.51 389.164 1523.82 Q389.164 1521.07 387.22 1519.33 Q385.299 1517.6 382.197 1517.6 Q379.998 1517.6 377.544 1518.36 Q375.113 1519.13 372.336 1520.68 L372.336 1515.95 Q375.16 1514.82 377.613 1514.24 Q380.067 1513.66 382.104 1513.66 Q387.474 1513.66 390.669 1516.35 Q393.863 1519.03 393.863 1523.52 Q393.863 1525.65 393.053 1527.57 Q392.266 1529.47 390.16 1532.07 Q389.581 1532.74 386.479 1535.95 Q383.377 1539.15 377.729 1544.91 Z" fill="#000000" fill-rule="evenodd" fill-opacity="1" /><path clip-path="url(#clip080)" d="M404.673 1544.91 L412.312 1544.91 L412.312 1518.55 L404.002 1520.21 L404.002 1515.95 L412.266 1514.29 L416.942 1514.29 L416.942 1544.91 L424.581 1544.91 L424.581 1548.85 L404.673 1548.85 L404.673 1544.91 Z" fill="#000000" fill-rule="evenodd" fill-opacity="1" /><path clip-path="url(#clip080)" d="M431.27 1533.96 L443.747 1533.96 L443.747 1537.76 L431.27 1537.76 L431.27 1533.96 Z" fill="#000000" fill-rule="evenodd" fill-opacity="1" /><path clip-path="url(#clip080)" d="M461.131 1517.37 Q457.52 1517.37 455.692 1520.93 Q453.886 1524.47 453.886 1531.6 Q453.886 1538.71 455.692 1542.27 Q457.52 1545.82 461.131 1545.82 Q464.766 1545.82 466.571 1542.27 Q468.4 1538.71 468.4 1531.6 Q468.4 1524.47 466.571 1520.93 Q464.766 1517.37 461.131 1517.37 M461.131 1513.66 Q466.942 1513.66 469.997 1518.27 Q473.076 1522.85 473.076 1531.6 Q473.076 1540.33 469.997 1544.94 Q466.942 1549.52 461.131 1549.52 Q455.321 1549.52 452.243 1544.94 Q449.187 1540.33 449.187 1531.6 Q449.187 1522.85 452.243 1518.27 Q455.321 1513.66 461.131 1513.66 Z" fill="#000000" fill-rule="evenodd" fill-opacity="1" /><path clip-path="url(#clip080)" d="M491.293 1532.44 Q487.96 1532.44 486.039 1534.22 Q484.141 1536 484.141 1539.13 Q484.141 1542.25 486.039 1544.03 Q487.96 1545.82 491.293 1545.82 Q494.627 1545.82 496.548 1544.03 Q498.469 1542.23 498.469 1539.13 Q498.469 1536 496.548 1534.22 Q494.65 1532.44 491.293 1532.44 M486.617 1530.45 Q483.608 1529.7 481.918 1527.64 Q480.252 1525.58 480.252 1522.62 Q480.252 1518.48 483.191 1516.07 Q486.154 1513.66 491.293 1513.66 Q496.455 1513.66 499.395 1516.07 Q502.335 1518.48 502.335 1522.62 Q502.335 1525.58 500.645 1527.64 Q498.978 1529.7 495.992 1530.45 Q499.372 1531.23 501.247 1533.52 Q503.145 1535.82 503.145 1539.13 Q503.145 1544.15 500.066 1546.83 Q497.011 1549.52 491.293 1549.52 Q485.576 1549.52 482.497 1546.83 Q479.442 1544.15 479.442 1539.13 Q479.442 1535.82 481.34 1533.52 Q483.238 1531.23 486.617 1530.45 M484.904 1523.06 Q484.904 1525.75 486.571 1527.25 Q488.261 1528.76 491.293 1528.76 Q494.303 1528.76 495.992 1527.25 Q497.705 1525.75 497.705 1523.06 Q497.705 1520.38 495.992 1518.87 Q494.303 1517.37 491.293 1517.37 Q488.261 1517.37 486.571 1518.87 Q484.904 1520.38 484.904 1523.06 Z" fill="#000000" fill-rule="evenodd" fill-opacity="1" /><path clip-path="url(#clip080)" d="M534.953 1544.91 L551.272 1544.91 L551.272 1548.85 L529.328 1548.85 L529.328 1544.91 Q531.99 1542.16 536.573 1537.53 Q541.179 1532.88 542.36 1531.53 Q544.605 1529.01 545.485 1527.27 Q546.388 1525.51 546.388 1523.82 Q546.388 1521.07 544.443 1519.33 Q542.522 1517.6 539.42 1517.6 Q537.221 1517.6 534.767 1518.36 Q532.337 1519.13 529.559 1520.68 L529.559 1515.95 Q532.383 1514.82 534.837 1514.24 Q537.29 1513.66 539.328 1513.66 Q544.698 1513.66 547.892 1516.35 Q551.087 1519.03 551.087 1523.52 Q551.087 1525.65 550.277 1527.57 Q549.489 1529.47 547.383 1532.07 Q546.804 1532.74 543.702 1535.95 Q540.601 1539.15 534.953 1544.91 Z" fill="#000000" fill-rule="evenodd" fill-opacity="1" /><path clip-path="url(#clip080)" d="M571.087 1517.37 Q567.476 1517.37 565.647 1520.93 Q563.841 1524.47 563.841 1531.6 Q563.841 1538.71 565.647 1542.27 Q567.476 1545.82 571.087 1545.82 Q574.721 1545.82 576.526 1542.27 Q578.355 1538.71 578.355 1531.6 Q578.355 1524.47 576.526 1520.93 Q574.721 1517.37 571.087 1517.37 M571.087 1513.66 Q576.897 1513.66 579.952 1518.27 Q583.031 1522.85 583.031 1531.6 Q583.031 1540.33 579.952 1544.94 Q576.897 1549.52 571.087 1549.52 Q565.276 1549.52 562.198 1544.94 Q559.142 1540.33 559.142 1531.6 Q559.142 1522.85 562.198 1518.27 Q565.276 1513.66 571.087 1513.66 Z" fill="#000000" fill-rule="evenodd" fill-opacity="1" /><path clip-path="url(#clip080)" d="M595.276 1544.91 L611.596 1544.91 L611.596 1548.85 L589.651 1548.85 L589.651 1544.91 Q592.313 1542.16 596.897 1537.53 Q601.503 1532.88 602.684 1531.53 Q604.929 1529.01 605.809 1527.27 Q606.711 1525.51 606.711 1523.82 Q606.711 1521.07 604.767 1519.33 Q602.846 1517.6 599.744 1517.6 Q597.545 1517.6 595.091 1518.36 Q592.661 1519.13 589.883 1520.68 L589.883 1515.95 Q592.707 1514.82 595.161 1514.24 Q597.614 1513.66 599.651 1513.66 Q605.022 1513.66 608.216 1516.35 Q611.41 1519.03 611.41 1523.52 Q611.41 1525.65 610.6 1527.57 Q609.813 1529.47 607.707 1532.07 Q607.128 1532.74 604.026 1535.95 Q600.924 1539.15 595.276 1544.91 Z" fill="#000000" fill-rule="evenodd" fill-opacity="1" /><path clip-path="url(#clip080)" d="M622.221 1544.91 L629.859 1544.91 L629.859 1518.55 L621.549 1520.21 L621.549 1515.95 L629.813 1514.29 L634.489 1514.29 L634.489 1544.91 L642.128 1544.91 L642.128 1548.85 L622.221 1548.85 L622.221 1544.91 Z" fill="#000000" fill-rule="evenodd" fill-opacity="1" /><path clip-path="url(#clip080)" d="M648.818 1533.96 L661.294 1533.96 L661.294 1537.76 L648.818 1537.76 L648.818 1533.96 Z" fill="#000000" fill-rule="evenodd" fill-opacity="1" /><path clip-path="url(#clip080)" d="M678.679 1517.37 Q675.068 1517.37 673.239 1520.93 Q671.433 1524.47 671.433 1531.6 Q671.433 1538.71 673.239 1542.27 Q675.068 1545.82 678.679 1545.82 Q682.313 1545.82 684.118 1542.27 Q685.947 1538.71 685.947 1531.6 Q685.947 1524.47 684.118 1520.93 Q682.313 1517.37 678.679 1517.37 M678.679 1513.66 Q684.489 1513.66 687.544 1518.27 Q690.623 1522.85 690.623 1531.6 Q690.623 1540.33 687.544 1544.94 Q684.489 1549.52 678.679 1549.52 Q672.868 1549.52 669.79 1544.94 Q666.734 1540.33 666.734 1531.6 Q666.734 1522.85 669.79 1518.27 Q672.868 1513.66 678.679 1513.66 Z" fill="#000000" fill-rule="evenodd" fill-opacity="1" /><path clip-path="url(#clip080)" d="M698.979 1548.13 L698.979 1543.87 Q700.739 1544.7 702.544 1545.14 Q704.35 1545.58 706.086 1545.58 Q710.715 1545.58 713.146 1542.48 Q715.6 1539.36 715.947 1533.01 Q714.604 1535.01 712.544 1536.07 Q710.484 1537.13 707.984 1537.13 Q702.799 1537.13 699.766 1534.01 Q696.757 1530.86 696.757 1525.42 Q696.757 1520.1 699.905 1516.88 Q703.053 1513.66 708.285 1513.66 Q714.28 1513.66 717.428 1518.27 Q720.6 1522.85 720.6 1531.6 Q720.6 1539.77 716.711 1544.66 Q712.845 1549.52 706.294 1549.52 Q704.535 1549.52 702.729 1549.17 Q700.924 1548.82 698.979 1548.13 M708.285 1533.48 Q711.433 1533.48 713.262 1531.32 Q715.114 1529.17 715.114 1525.42 Q715.114 1521.7 713.262 1519.54 Q711.433 1517.37 708.285 1517.37 Q705.137 1517.37 703.285 1519.54 Q701.456 1521.7 701.456 1525.42 Q701.456 1529.17 703.285 1531.32 Q705.137 1533.48 708.285 1533.48 Z" fill="#000000" fill-rule="evenodd" fill-opacity="1" /><path clip-path="url(#clip080)" d="M752.361 1544.91 L768.68 1544.91 L768.68 1548.85 L746.736 1548.85 L746.736 1544.91 Q749.398 1542.16 753.981 1537.53 Q758.588 1532.88 759.768 1531.53 Q762.014 1529.01 762.893 1527.27 Q763.796 1525.51 763.796 1523.82 Q763.796 1521.07 761.852 1519.33 Q759.93 1517.6 756.828 1517.6 Q754.629 1517.6 752.176 1518.36 Q749.745 1519.13 746.967 1520.68 L746.967 1515.95 Q749.791 1514.82 752.245 1514.24 Q754.699 1513.66 756.736 1513.66 Q762.106 1513.66 765.301 1516.35 Q768.495 1519.03 768.495 1523.52 Q768.495 1525.65 767.685 1527.57 Q766.898 1529.47 764.791 1532.07 Q764.213 1532.74 761.111 1535.95 Q758.009 1539.15 752.361 1544.91 Z" fill="#000000" fill-rule="evenodd" fill-opacity="1" /><path clip-path="url(#clip080)" d="M788.495 1517.37 Q784.884 1517.37 783.055 1520.93 Q781.25 1524.47 781.25 1531.6 Q781.25 1538.71 783.055 1542.27 Q784.884 1545.82 788.495 1545.82 Q792.129 1545.82 793.935 1542.27 Q795.763 1538.71 795.763 1531.6 Q795.763 1524.47 793.935 1520.93 Q792.129 1517.37 788.495 1517.37 M788.495 1513.66 Q794.305 1513.66 797.361 1518.27 Q800.439 1522.85 800.439 1531.6 Q800.439 1540.33 797.361 1544.94 Q794.305 1549.52 788.495 1549.52 Q782.685 1549.52 779.606 1544.94 Q776.551 1540.33 776.551 1531.6 Q776.551 1522.85 779.606 1518.27 Q782.685 1513.66 788.495 1513.66 Z" fill="#000000" fill-rule="evenodd" fill-opacity="1" /><path clip-path="url(#clip080)" d="M812.685 1544.91 L829.004 1544.91 L829.004 1548.85 L807.06 1548.85 L807.06 1544.91 Q809.722 1542.16 814.305 1537.53 Q818.911 1532.88 820.092 1531.53 Q822.337 1529.01 823.217 1527.27 Q824.12 1525.51 824.12 1523.82 Q824.12 1521.07 822.175 1519.33 Q820.254 1517.6 817.152 1517.6 Q814.953 1517.6 812.499 1518.36 Q810.069 1519.13 807.291 1520.68 L807.291 1515.95 Q810.115 1514.82 812.569 1514.24 Q815.023 1513.66 817.06 1513.66 Q822.43 1513.66 825.624 1516.35 Q828.819 1519.03 828.819 1523.52 Q828.819 1525.65 828.009 1527.57 Q827.222 1529.47 825.115 1532.07 Q824.536 1532.74 821.435 1535.95 Q818.333 1539.15 812.685 1544.91 Z" fill="#000000" fill-rule="evenodd" fill-opacity="1" /><path clip-path="url(#clip080)" d="M839.629 1544.91 L847.268 1544.91 L847.268 1518.55 L838.958 1520.21 L838.958 1515.95 L847.221 1514.29 L851.897 1514.29 L851.897 1544.91 L859.536 1544.91 L859.536 1548.85 L839.629 1548.85 L839.629 1544.91 Z" fill="#000000" fill-rule="evenodd" fill-opacity="1" /><path clip-path="url(#clip080)" d="M866.226 1533.96 L878.703 1533.96 L878.703 1537.76 L866.226 1537.76 L866.226 1533.96 Z" fill="#000000" fill-rule="evenodd" fill-opacity="1" /><path clip-path="url(#clip080)" d="M886.897 1544.91 L894.536 1544.91 L894.536 1518.55 L886.226 1520.21 L886.226 1515.95 L894.49 1514.29 L899.166 1514.29 L899.166 1544.91 L906.804 1544.91 L906.804 1548.85 L886.897 1548.85 L886.897 1544.91 Z" fill="#000000" fill-rule="evenodd" fill-opacity="1" /><path clip-path="url(#clip080)" d="M926.249 1517.37 Q922.638 1517.37 920.809 1520.93 Q919.003 1524.47 919.003 1531.6 Q919.003 1538.71 920.809 1542.27 Q922.638 1545.82 926.249 1545.82 Q929.883 1545.82 931.689 1542.27 Q933.517 1538.71 933.517 1531.6 Q933.517 1524.47 931.689 1520.93 Q929.883 1517.37 926.249 1517.37 M926.249 1513.66 Q932.059 1513.66 935.114 1518.27 Q938.193 1522.85 938.193 1531.6 Q938.193 1540.33 935.114 1544.94 Q932.059 1549.52 926.249 1549.52 Q920.439 1549.52 917.36 1544.94 Q914.304 1540.33 914.304 1531.6 Q914.304 1522.85 917.36 1518.27 Q920.439 1513.66 926.249 1513.66 Z" fill="#000000" fill-rule="evenodd" fill-opacity="1" /><path clip-path="url(#clip080)" d="M970.475 1544.91 L986.795 1544.91 L986.795 1548.85 L964.85 1548.85 L964.85 1544.91 Q967.512 1542.16 972.096 1537.53 Q976.702 1532.88 977.883 1531.53 Q980.128 1529.01 981.007 1527.27 Q981.91 1525.51 981.91 1523.82 Q981.91 1521.07 979.966 1519.33 Q978.045 1517.6 974.943 1517.6 Q972.744 1517.6 970.29 1518.36 Q967.859 1519.13 965.082 1520.68 L965.082 1515.95 Q967.906 1514.82 970.359 1514.24 Q972.813 1513.66 974.85 1513.66 Q980.22 1513.66 983.415 1516.35 Q986.609 1519.03 986.609 1523.52 Q986.609 1525.65 985.799 1527.57 Q985.012 1529.47 982.906 1532.07 Q982.327 1532.74 979.225 1535.95 Q976.123 1539.15 970.475 1544.91 Z" fill="#000000" fill-rule="evenodd" fill-opacity="1" /><path clip-path="url(#clip080)" d="M1006.61 1517.37 Q1003 1517.37 1001.17 1520.93 Q999.364 1524.47 999.364 1531.6 Q999.364 1538.71 1001.17 1542.27 Q1003 1545.82 1006.61 1545.82 Q1010.24 1545.82 1012.05 1542.27 Q1013.88 1538.71 1013.88 1531.6 Q1013.88 1524.47 1012.05 1520.93 Q1010.24 1517.37 1006.61 1517.37 M1006.61 1513.66 Q1012.42 1513.66 1015.47 1518.27 Q1018.55 1522.85 1018.55 1531.6 Q1018.55 1540.33 1015.47 1544.94 Q1012.42 1549.52 1006.61 1549.52 Q1000.8 1549.52 997.72 1544.94 Q994.665 1540.33 994.665 1531.6 Q994.665 1522.85 997.72 1518.27 Q1000.8 1513.66 1006.61 1513.66 Z" fill="#000000" fill-rule="evenodd" fill-opacity="1" /><path clip-path="url(#clip080)" d="M1030.8 1544.91 L1047.12 1544.91 L1047.12 1548.85 L1025.17 1548.85 L1025.17 1544.91 Q1027.84 1542.16 1032.42 1537.53 Q1037.03 1532.88 1038.21 1531.53 Q1040.45 1529.01 1041.33 1527.27 Q1042.23 1525.51 1042.23 1523.82 Q1042.23 1521.07 1040.29 1519.33 Q1038.37 1517.6 1035.27 1517.6 Q1033.07 1517.6 1030.61 1518.36 Q1028.18 1519.13 1025.41 1520.68 L1025.41 1515.95 Q1028.23 1514.82 1030.68 1514.24 Q1033.14 1513.66 1035.17 1513.66 Q1040.54 1513.66 1043.74 1516.35 Q1046.93 1519.03 1046.93 1523.52 Q1046.93 1525.65 1046.12 1527.57 Q1045.34 1529.47 1043.23 1532.07 Q1042.65 1532.74 1039.55 1535.95 Q1036.45 1539.15 1030.8 1544.91 Z" fill="#000000" fill-rule="evenodd" fill-opacity="1" /><path clip-path="url(#clip080)" d="M1057.74 1544.91 L1065.38 1544.91 L1065.38 1518.55 L1057.07 1520.21 L1057.07 1515.95 L1065.34 1514.29 L1070.01 1514.29 L1070.01 1544.91 L1077.65 1544.91 L1077.65 1548.85 L1057.74 1548.85 L1057.74 1544.91 Z" fill="#000000" fill-rule="evenodd" fill-opacity="1" /><path clip-path="url(#clip080)" d="M1084.34 1533.96 L1096.82 1533.96 L1096.82 1537.76 L1084.34 1537.76 L1084.34 1533.96 Z" fill="#000000" fill-rule="evenodd" fill-opacity="1" /><path clip-path="url(#clip080)" d="M1105.01 1544.91 L1112.65 1544.91 L1112.65 1518.55 L1104.34 1520.21 L1104.34 1515.95 L1112.6 1514.29 L1117.28 1514.29 L1117.28 1544.91 L1124.92 1544.91 L1124.92 1548.85 L1105.01 1548.85 L1105.01 1544.91 Z" fill="#000000" fill-rule="evenodd" fill-opacity="1" /><path clip-path="url(#clip080)" d="M1135.17 1544.91 L1142.81 1544.91 L1142.81 1518.55 L1134.5 1520.21 L1134.5 1515.95 L1142.77 1514.29 L1147.44 1514.29 L1147.44 1544.91 L1155.08 1544.91 L1155.08 1548.85 L1135.17 1548.85 L1135.17 1544.91 Z" fill="#000000" fill-rule="evenodd" fill-opacity="1" /><path clip-path="url(#clip080)" d="M1188.16 1544.91 L1204.48 1544.91 L1204.48 1548.85 L1182.54 1548.85 L1182.54 1544.91 Q1185.2 1542.16 1189.78 1537.53 Q1194.39 1532.88 1195.57 1531.53 Q1197.81 1529.01 1198.69 1527.27 Q1199.6 1525.51 1199.6 1523.82 Q1199.6 1521.07 1197.65 1519.33 Q1195.73 1517.6 1192.63 1517.6 Q1190.43 1517.6 1187.98 1518.36 Q1185.55 1519.13 1182.77 1520.68 L1182.77 1515.95 Q1185.59 1514.82 1188.05 1514.24 Q1190.5 1513.66 1192.54 1513.66 Q1197.91 1513.66 1201.1 1516.35 Q1204.3 1519.03 1204.3 1523.52 Q1204.3 1525.65 1203.49 1527.57 Q1202.7 1529.47 1200.59 1532.07 Q1200.01 1532.74 1196.91 1535.95 Q1193.81 1539.15 1188.16 1544.91 Z" fill="#000000" fill-rule="evenodd" fill-opacity="1" /><path clip-path="url(#clip080)" d="M1224.3 1517.37 Q1220.68 1517.37 1218.86 1520.93 Q1217.05 1524.47 1217.05 1531.6 Q1217.05 1538.71 1218.86 1542.27 Q1220.68 1545.82 1224.3 1545.82 Q1227.93 1545.82 1229.74 1542.27 Q1231.56 1538.71 1231.56 1531.6 Q1231.56 1524.47 1229.74 1520.93 Q1227.93 1517.37 1224.3 1517.37 M1224.3 1513.66 Q1230.11 1513.66 1233.16 1518.27 Q1236.24 1522.85 1236.24 1531.6 Q1236.24 1540.33 1233.16 1544.94 Q1230.11 1549.52 1224.3 1549.52 Q1218.49 1549.52 1215.41 1544.94 Q1212.35 1540.33 1212.35 1531.6 Q1212.35 1522.85 1215.41 1518.27 Q1218.49 1513.66 1224.3 1513.66 Z" fill="#000000" fill-rule="evenodd" fill-opacity="1" /><path clip-path="url(#clip080)" d="M1248.48 1544.91 L1264.8 1544.91 L1264.8 1548.85 L1242.86 1548.85 L1242.86 1544.91 Q1245.52 1542.16 1250.11 1537.53 Q1254.71 1532.88 1255.89 1531.53 Q1258.14 1529.01 1259.02 1527.27 Q1259.92 1525.51 1259.92 1523.82 Q1259.92 1521.07 1257.98 1519.33 Q1256.05 1517.6 1252.95 1517.6 Q1250.75 1517.6 1248.3 1518.36 Q1245.87 1519.13 1243.09 1520.68 L1243.09 1515.95 Q1245.92 1514.82 1248.37 1514.24 Q1250.82 1513.66 1252.86 1513.66 Q1258.23 1513.66 1261.42 1516.35 Q1264.62 1519.03 1264.62 1523.52 Q1264.62 1525.65 1263.81 1527.57 Q1263.02 1529.47 1260.92 1532.07 Q1260.34 1532.74 1257.23 1535.95 Q1254.13 1539.15 1248.48 1544.91 Z" fill="#000000" fill-rule="evenodd" fill-opacity="1" /><path clip-path="url(#clip080)" d="M1275.43 1544.91 L1283.07 1544.91 L1283.07 1518.55 L1274.76 1520.21 L1274.76 1515.95 L1283.02 1514.29 L1287.7 1514.29 L1287.7 1544.91 L1295.34 1544.91 L1295.34 1548.85 L1275.43 1548.85 L1275.43 1544.91 Z" fill="#000000" fill-rule="evenodd" fill-opacity="1" /><path clip-path="url(#clip080)" d="M1302.03 1533.96 L1314.5 1533.96 L1314.5 1537.76 L1302.03 1537.76 L1302.03 1533.96 Z" fill="#000000" fill-rule="evenodd" fill-opacity="1" /><path clip-path="url(#clip080)" d="M1322.7 1544.91 L1330.34 1544.91 L1330.34 1518.55 L1322.03 1520.21 L1322.03 1515.95 L1330.29 1514.29 L1334.97 1514.29 L1334.97 1544.91 L1342.6 1544.91 L1342.6 1548.85 L1322.7 1548.85 L1322.7 1544.91 Z" fill="#000000" fill-rule="evenodd" fill-opacity="1" /><path clip-path="url(#clip080)" d="M1356.08 1544.91 L1372.4 1544.91 L1372.4 1548.85 L1350.45 1548.85 L1350.45 1544.91 Q1353.11 1542.16 1357.7 1537.53 Q1362.3 1532.88 1363.48 1531.53 Q1365.73 1529.01 1366.61 1527.27 Q1367.51 1525.51 1367.51 1523.82 Q1367.51 1521.07 1365.57 1519.33 Q1363.65 1517.6 1360.54 1517.6 Q1358.35 1517.6 1355.89 1518.36 Q1353.46 1519.13 1350.68 1520.68 L1350.68 1515.95 Q1353.51 1514.82 1355.96 1514.24 Q1358.41 1513.66 1360.45 1513.66 Q1365.82 1513.66 1369.02 1516.35 Q1372.21 1519.03 1372.21 1523.52 Q1372.21 1525.65 1371.4 1527.57 Q1370.61 1529.47 1368.51 1532.07 Q1367.93 1532.74 1364.83 1535.95 Q1361.73 1539.15 1356.08 1544.91 Z" fill="#000000" fill-rule="evenodd" fill-opacity="1" /><path clip-path="url(#clip080)" d="M1405.48 1544.91 L1421.8 1544.91 L1421.8 1548.85 L1399.85 1548.85 L1399.85 1544.91 Q1402.51 1542.16 1407.1 1537.53 Q1411.7 1532.88 1412.88 1531.53 Q1415.13 1529.01 1416.01 1527.27 Q1416.91 1525.51 1416.91 1523.82 Q1416.91 1521.07 1414.97 1519.33 Q1413.05 1517.6 1409.94 1517.6 Q1407.75 1517.6 1405.29 1518.36 Q1402.86 1519.13 1400.08 1520.68 L1400.08 1515.95 Q1402.91 1514.82 1405.36 1514.24 Q1407.81 1513.66 1409.85 1513.66 Q1415.22 1513.66 1418.42 1516.35 Q1421.61 1519.03 1421.61 1523.52 Q1421.61 1525.65 1420.8 1527.57 Q1420.01 1529.47 1417.91 1532.07 Q1417.33 1532.74 1414.23 1535.95 Q1411.13 1539.15 1405.48 1544.91 Z" fill="#000000" fill-rule="evenodd" fill-opacity="1" /><path clip-path="url(#clip080)" d="M1441.61 1517.37 Q1438 1517.37 1436.17 1520.93 Q1434.37 1524.47 1434.37 1531.6 Q1434.37 1538.71 1436.17 1542.27 Q1438 1545.82 1441.61 1545.82 Q1445.25 1545.82 1447.05 1542.27 Q1448.88 1538.71 1448.88 1531.6 Q1448.88 1524.47 1447.05 1520.93 Q1445.25 1517.37 1441.61 1517.37 M1441.61 1513.66 Q1447.42 1513.66 1450.48 1518.27 Q1453.56 1522.85 1453.56 1531.6 Q1453.56 1540.33 1450.48 1544.94 Q1447.42 1549.52 1441.61 1549.52 Q1435.8 1549.52 1432.72 1544.94 Q1429.67 1540.33 1429.67 1531.6 Q1429.67 1522.85 1432.72 1518.27 Q1435.8 1513.66 1441.61 1513.66 Z" fill="#000000" fill-rule="evenodd" fill-opacity="1" /><path clip-path="url(#clip080)" d="M1465.8 1544.91 L1482.12 1544.91 L1482.12 1548.85 L1460.18 1548.85 L1460.18 1544.91 Q1462.84 1542.16 1467.42 1537.53 Q1472.03 1532.88 1473.21 1531.53 Q1475.45 1529.01 1476.33 1527.27 Q1477.24 1525.51 1477.24 1523.82 Q1477.24 1521.07 1475.29 1519.33 Q1473.37 1517.6 1470.27 1517.6 Q1468.07 1517.6 1465.62 1518.36 Q1463.18 1519.13 1460.41 1520.68 L1460.41 1515.95 Q1463.23 1514.82 1465.68 1514.24 Q1468.14 1513.66 1470.18 1513.66 Q1475.55 1513.66 1478.74 1516.35 Q1481.93 1519.03 1481.93 1523.52 Q1481.93 1525.65 1481.12 1527.57 Q1480.34 1529.47 1478.23 1532.07 Q1477.65 1532.74 1474.55 1535.95 Q1471.45 1539.15 1465.8 1544.91 Z" fill="#000000" fill-rule="evenodd" fill-opacity="1" /><path clip-path="url(#clip080)" d="M1495.96 1544.91 L1512.28 1544.91 L1512.28 1548.85 L1490.34 1548.85 L1490.34 1544.91 Q1493 1542.16 1497.58 1537.53 Q1502.19 1532.88 1503.37 1531.53 Q1505.62 1529.01 1506.49 1527.27 Q1507.4 1525.51 1507.4 1523.82 Q1507.4 1521.07 1505.45 1519.33 Q1503.53 1517.6 1500.43 1517.6 Q1498.23 1517.6 1495.78 1518.36 Q1493.35 1519.13 1490.57 1520.68 L1490.57 1515.95 Q1493.39 1514.82 1495.85 1514.24 Q1498.3 1513.66 1500.34 1513.66 Q1505.71 1513.66 1508.9 1516.35 Q1512.1 1519.03 1512.1 1523.52 Q1512.1 1525.65 1511.29 1527.57 Q1510.5 1529.47 1508.39 1532.07 Q1507.81 1532.74 1504.71 1535.95 Q1501.61 1539.15 1495.96 1544.91 Z" fill="#000000" fill-rule="evenodd" fill-opacity="1" /><path clip-path="url(#clip080)" d="M1519.34 1533.96 L1531.82 1533.96 L1531.82 1537.76 L1519.34 1537.76 L1519.34 1533.96 Z" fill="#000000" fill-rule="evenodd" fill-opacity="1" /><path clip-path="url(#clip080)" d="M1549.2 1517.37 Q1545.59 1517.37 1543.76 1520.93 Q1541.96 1524.47 1541.96 1531.6 Q1541.96 1538.71 1543.76 1542.27 Q1545.59 1545.82 1549.2 1545.82 Q1552.84 1545.82 1554.64 1542.27 Q1556.47 1538.71 1556.47 1531.6 Q1556.47 1524.47 1554.64 1520.93 Q1552.84 1517.37 1549.2 1517.37 M1549.2 1513.66 Q1555.01 1513.66 1558.07 1518.27 Q1561.15 1522.85 1561.15 1531.6 Q1561.15 1540.33 1558.07 1544.94 Q1555.01 1549.52 1549.2 1549.52 Q1543.39 1549.52 1540.31 1544.94 Q1537.26 1540.33 1537.26 1531.6 Q1537.26 1522.85 1540.31 1518.27 Q1543.39 1513.66 1549.2 1513.66 Z" fill="#000000" fill-rule="evenodd" fill-opacity="1" /><path clip-path="url(#clip080)" d="M1570.18 1544.91 L1577.81 1544.91 L1577.81 1518.55 L1569.5 1520.21 L1569.5 1515.95 L1577.77 1514.29 L1582.44 1514.29 L1582.44 1544.91 L1590.08 1544.91 L1590.08 1548.85 L1570.18 1548.85 L1570.18 1544.91 Z" fill="#000000" fill-rule="evenodd" fill-opacity="1" /><path clip-path="url(#clip080)" d="M1623.16 1544.91 L1639.48 1544.91 L1639.48 1548.85 L1617.54 1548.85 L1617.54 1544.91 Q1620.2 1542.16 1624.78 1537.53 Q1629.39 1532.88 1630.57 1531.53 Q1632.82 1529.01 1633.7 1527.27 Q1634.6 1525.51 1634.6 1523.82 Q1634.6 1521.07 1632.65 1519.33 Q1630.73 1517.6 1627.63 1517.6 Q1625.43 1517.6 1622.98 1518.36 Q1620.55 1519.13 1617.77 1520.68 L1617.77 1515.95 Q1620.59 1514.82 1623.05 1514.24 Q1625.5 1513.66 1627.54 1513.66 Q1632.91 1513.66 1636.1 1516.35 Q1639.3 1519.03 1639.3 1523.52 Q1639.3 1525.65 1638.49 1527.57 Q1637.7 1529.47 1635.59 1532.07 Q1635.01 1532.74 1631.91 1535.95 Q1628.81 1539.15 1623.16 1544.91 Z" fill="#000000" fill-rule="evenodd" fill-opacity="1" /><path clip-path="url(#clip080)" d="M1659.3 1517.37 Q1655.69 1517.37 1653.86 1520.93 Q1652.05 1524.47 1652.05 1531.6 Q1652.05 1538.71 1653.86 1542.27 Q1655.69 1545.82 1659.3 1545.82 Q1662.93 1545.82 1664.74 1542.27 Q1666.57 1538.71 1666.57 1531.6 Q1666.57 1524.47 1664.74 1520.93 Q1662.93 1517.37 1659.3 1517.37 M1659.3 1513.66 Q1665.11 1513.66 1668.16 1518.27 Q1671.24 1522.85 1671.24 1531.6 Q1671.24 1540.33 1668.16 1544.94 Q1665.11 1549.52 1659.3 1549.52 Q1653.49 1549.52 1650.41 1544.94 Q1647.35 1540.33 1647.35 1531.6 Q1647.35 1522.85 1650.41 1518.27 Q1653.49 1513.66 1659.3 1513.66 Z" fill="#000000" fill-rule="evenodd" fill-opacity="1" /><path clip-path="url(#clip080)" d="M1683.49 1544.91 L1699.81 1544.91 L1699.81 1548.85 L1677.86 1548.85 L1677.86 1544.91 Q1680.52 1542.16 1685.11 1537.53 Q1689.71 1532.88 1690.89 1531.53 Q1693.14 1529.01 1694.02 1527.27 Q1694.92 1525.51 1694.92 1523.82 Q1694.92 1521.07 1692.98 1519.33 Q1691.06 1517.6 1687.95 1517.6 Q1685.76 1517.6 1683.3 1518.36 Q1680.87 1519.13 1678.09 1520.68 L1678.09 1515.95 Q1680.92 1514.82 1683.37 1514.24 Q1685.82 1513.66 1687.86 1513.66 Q1693.23 1513.66 1696.43 1516.35 Q1699.62 1519.03 1699.62 1523.52 Q1699.62 1525.65 1698.81 1527.57 Q1698.02 1529.47 1695.92 1532.07 Q1695.34 1532.74 1692.24 1535.95 Q1689.13 1539.15 1683.49 1544.91 Z" fill="#000000" fill-rule="evenodd" fill-opacity="1" /><path clip-path="url(#clip080)" d="M1713.65 1544.91 L1729.97 1544.91 L1729.97 1548.85 L1708.02 1548.85 L1708.02 1544.91 Q1710.69 1542.16 1715.27 1537.53 Q1719.88 1532.88 1721.06 1531.53 Q1723.3 1529.01 1724.18 1527.27 Q1725.08 1525.51 1725.08 1523.82 Q1725.08 1521.07 1723.14 1519.33 Q1721.22 1517.6 1718.12 1517.6 Q1715.92 1517.6 1713.46 1518.36 Q1711.03 1519.13 1708.26 1520.68 L1708.26 1515.95 Q1711.08 1514.82 1713.53 1514.24 Q1715.99 1513.66 1718.02 1513.66 Q1723.39 1513.66 1726.59 1516.35 Q1729.78 1519.03 1729.78 1523.52 Q1729.78 1525.65 1728.97 1527.57 Q1728.19 1529.47 1726.08 1532.07 Q1725.5 1532.74 1722.4 1535.95 Q1719.3 1539.15 1713.65 1544.91 Z" fill="#000000" fill-rule="evenodd" fill-opacity="1" /><path clip-path="url(#clip080)" d="M1737.03 1533.96 L1749.5 1533.96 L1749.5 1537.76 L1737.03 1537.76 L1737.03 1533.96 Z" fill="#000000" fill-rule="evenodd" fill-opacity="1" /><path clip-path="url(#clip080)" d="M1766.89 1517.37 Q1763.28 1517.37 1761.45 1520.93 Q1759.64 1524.47 1759.64 1531.6 Q1759.64 1538.71 1761.45 1542.27 Q1763.28 1545.82 1766.89 1545.82 Q1770.52 1545.82 1772.33 1542.27 Q1774.16 1538.71 1774.16 1531.6 Q1774.16 1524.47 1772.33 1520.93 Q1770.52 1517.37 1766.89 1517.37 M1766.89 1513.66 Q1772.7 1513.66 1775.75 1518.27 Q1778.83 1522.85 1778.83 1531.6 Q1778.83 1540.33 1775.75 1544.94 Q1772.7 1549.52 1766.89 1549.52 Q1761.08 1549.52 1758 1544.94 Q1754.94 1540.33 1754.94 1531.6 Q1754.94 1522.85 1758 1518.27 Q1761.08 1513.66 1766.89 1513.66 Z" fill="#000000" fill-rule="evenodd" fill-opacity="1" /><path clip-path="url(#clip080)" d="M1791.08 1544.91 L1807.4 1544.91 L1807.4 1548.85 L1785.45 1548.85 L1785.45 1544.91 Q1788.12 1542.16 1792.7 1537.53 Q1797.31 1532.88 1798.49 1531.53 Q1800.73 1529.01 1801.61 1527.27 Q1802.51 1525.51 1802.51 1523.82 Q1802.51 1521.07 1800.57 1519.33 Q1798.65 1517.6 1795.55 1517.6 Q1793.35 1517.6 1790.89 1518.36 Q1788.46 1519.13 1785.69 1520.68 L1785.69 1515.95 Q1788.51 1514.82 1790.96 1514.24 Q1793.42 1513.66 1795.45 1513.66 Q1800.82 1513.66 1804.02 1516.35 Q1807.21 1519.03 1807.21 1523.52 Q1807.21 1525.65 1806.4 1527.57 Q1805.62 1529.47 1803.51 1532.07 Q1802.93 1532.74 1799.83 1535.95 Q1796.73 1539.15 1791.08 1544.91 Z" fill="#000000" fill-rule="evenodd" fill-opacity="1" /><path clip-path="url(#clip080)" d="M1840.19 1544.91 L1856.51 1544.91 L1856.51 1548.85 L1834.56 1548.85 L1834.56 1544.91 Q1837.23 1542.16 1841.81 1537.53 Q1846.42 1532.88 1847.6 1531.53 Q1849.84 1529.01 1850.72 1527.27 Q1851.62 1525.51 1851.62 1523.82 Q1851.62 1521.07 1849.68 1519.33 Q1847.76 1517.6 1844.66 1517.6 Q1842.46 1517.6 1840 1518.36 Q1837.57 1519.13 1834.8 1520.68 L1834.8 1515.95 Q1837.62 1514.82 1840.07 1514.24 Q1842.53 1513.66 1844.56 1513.66 Q1849.93 1513.66 1853.13 1516.35 Q1856.32 1519.03 1856.32 1523.52 Q1856.32 1525.65 1855.51 1527.57 Q1854.73 1529.47 1852.62 1532.07 Q1852.04 1532.74 1848.94 1535.95 Q1845.84 1539.15 1840.19 1544.91 Z" fill="#000000" fill-rule="evenodd" fill-opacity="1" /><path clip-path="url(#clip080)" d="M1876.32 1517.37 Q1872.71 1517.37 1870.88 1520.93 Q1869.08 1524.47 1869.08 1531.6 Q1869.08 1538.71 1870.88 1542.27 Q1872.71 1545.82 1876.32 1545.82 Q1879.96 1545.82 1881.76 1542.27 Q1883.59 1538.71 1883.59 1531.6 Q1883.59 1524.47 1881.76 1520.93 Q1879.96 1517.37 1876.32 1517.37 M1876.32 1513.66 Q1882.13 1513.66 1885.19 1518.27 Q1888.27 1522.85 1888.27 1531.6 Q1888.27 1540.33 1885.19 1544.94 Q1882.13 1549.52 1876.32 1549.52 Q1870.51 1549.52 1867.43 1544.94 Q1864.38 1540.33 1864.38 1531.6 Q1864.38 1522.85 1867.43 1518.27 Q1870.51 1513.66 1876.32 1513.66 Z" fill="#000000" fill-rule="evenodd" fill-opacity="1" /><path clip-path="url(#clip080)" d="M1900.51 1544.91 L1916.83 1544.91 L1916.83 1548.85 L1894.89 1548.85 L1894.89 1544.91 Q1897.55 1542.16 1902.13 1537.53 Q1906.74 1532.88 1907.92 1531.53 Q1910.17 1529.01 1911.05 1527.27 Q1911.95 1525.51 1911.95 1523.82 Q1911.95 1521.07 1910 1519.33 Q1908.08 1517.6 1904.98 1517.6 Q1902.78 1517.6 1900.33 1518.36 Q1897.9 1519.13 1895.12 1520.68 L1895.12 1515.95 Q1897.94 1514.82 1900.4 1514.24 Q1902.85 1513.66 1904.89 1513.66 Q1910.26 1513.66 1913.45 1516.35 Q1916.65 1519.03 1916.65 1523.52 Q1916.65 1525.65 1915.84 1527.57 Q1915.05 1529.47 1912.94 1532.07 Q1912.36 1532.74 1909.26 1535.95 Q1906.16 1539.15 1900.51 1544.91 Z" fill="#000000" fill-rule="evenodd" fill-opacity="1" /><path clip-path="url(#clip080)" d="M1930.67 1544.91 L1946.99 1544.91 L1946.99 1548.85 L1925.05 1548.85 L1925.05 1544.91 Q1927.71 1542.16 1932.3 1537.53 Q1936.9 1532.88 1938.08 1531.53 Q1940.33 1529.01 1941.21 1527.27 Q1942.11 1525.51 1942.11 1523.82 Q1942.11 1521.07 1940.17 1519.33 Q1938.24 1517.6 1935.14 1517.6 Q1932.94 1517.6 1930.49 1518.36 Q1928.06 1519.13 1925.28 1520.68 L1925.28 1515.95 Q1928.11 1514.82 1930.56 1514.24 Q1933.01 1513.66 1935.05 1513.66 Q1940.42 1513.66 1943.61 1516.35 Q1946.81 1519.03 1946.81 1523.52 Q1946.81 1525.65 1946 1527.57 Q1945.21 1529.47 1943.11 1532.07 Q1942.53 1532.74 1939.42 1535.95 Q1936.32 1539.15 1930.67 1544.91 Z" fill="#000000" fill-rule="evenodd" fill-opacity="1" /><path clip-path="url(#clip080)" d="M1954.05 1533.96 L1966.53 1533.96 L1966.53 1537.76 L1954.05 1537.76 L1954.05 1533.96 Z" fill="#000000" fill-rule="evenodd" fill-opacity="1" /><path clip-path="url(#clip080)" d="M1983.92 1517.37 Q1980.3 1517.37 1978.48 1520.93 Q1976.67 1524.47 1976.67 1531.6 Q1976.67 1538.71 1978.48 1542.27 Q1980.3 1545.82 1983.92 1545.82 Q1987.55 1545.82 1989.36 1542.27 Q1991.18 1538.71 1991.18 1531.6 Q1991.18 1524.47 1989.36 1520.93 Q1987.55 1517.37 1983.92 1517.37 M1983.92 1513.66 Q1989.73 1513.66 1992.78 1518.27 Q1995.86 1522.85 1995.86 1531.6 Q1995.86 1540.33 1992.78 1544.94 Q1989.73 1549.52 1983.92 1549.52 Q1978.11 1549.52 1975.03 1544.94 Q1971.97 1540.33 1971.97 1531.6 Q1971.97 1522.85 1975.03 1518.27 Q1978.11 1513.66 1983.92 1513.66 Z" fill="#000000" fill-rule="evenodd" fill-opacity="1" /><path clip-path="url(#clip080)" d="M2018.24 1530.21 Q2021.6 1530.93 2023.48 1533.2 Q2025.37 1535.47 2025.37 1538.8 Q2025.37 1543.92 2021.86 1546.72 Q2018.34 1549.52 2011.86 1549.52 Q2009.68 1549.52 2007.36 1549.08 Q2005.07 1548.66 2002.62 1547.81 L2002.62 1543.29 Q2004.56 1544.43 2006.88 1545.01 Q2009.19 1545.58 2011.72 1545.58 Q2016.11 1545.58 2018.41 1543.85 Q2020.72 1542.11 2020.72 1538.8 Q2020.72 1535.75 2018.57 1534.03 Q2016.44 1532.3 2012.62 1532.3 L2008.59 1532.3 L2008.59 1528.45 L2012.8 1528.45 Q2016.25 1528.45 2018.08 1527.09 Q2019.91 1525.7 2019.91 1523.11 Q2019.91 1520.45 2018.01 1519.03 Q2016.14 1517.6 2012.62 1517.6 Q2010.7 1517.6 2008.5 1518.01 Q2006.3 1518.43 2003.66 1519.31 L2003.66 1515.14 Q2006.32 1514.4 2008.64 1514.03 Q2010.98 1513.66 2013.04 1513.66 Q2018.36 1513.66 2021.46 1516.09 Q2024.56 1518.5 2024.56 1522.62 Q2024.56 1525.49 2022.92 1527.48 Q2021.28 1529.45 2018.24 1530.21 Z" fill="#000000" fill-rule="evenodd" fill-opacity="1" /><path clip-path="url(#clip080)" d="M2057.12 1544.91 L2073.44 1544.91 L2073.44 1548.85 L2051.5 1548.85 L2051.5 1544.91 Q2054.16 1542.16 2058.74 1537.53 Q2063.35 1532.88 2064.53 1531.53 Q2066.78 1529.01 2067.66 1527.27 Q2068.56 1525.51 2068.56 1523.82 Q2068.56 1521.07 2066.61 1519.33 Q2064.69 1517.6 2061.59 1517.6 Q2059.39 1517.6 2056.94 1518.36 Q2054.51 1519.13 2051.73 1520.68 L2051.73 1515.95 Q2054.55 1514.82 2057.01 1514.24 Q2059.46 1513.66 2061.5 1513.66 Q2066.87 1513.66 2070.06 1516.35 Q2073.26 1519.03 2073.26 1523.52 Q2073.26 1525.65 2072.45 1527.57 Q2071.66 1529.47 2069.55 1532.07 Q2068.97 1532.74 2065.87 1535.95 Q2062.77 1539.15 2057.12 1544.91 Z" fill="#000000" fill-rule="evenodd" fill-opacity="1" /><path clip-path="url(#clip080)" d="M2093.26 1517.37 Q2089.65 1517.37 2087.82 1520.93 Q2086.01 1524.47 2086.01 1531.6 Q2086.01 1538.71 2087.82 1542.27 Q2089.65 1545.82 2093.26 1545.82 Q2096.89 1545.82 2098.7 1542.27 Q2100.53 1538.71 2100.53 1531.6 Q2100.53 1524.47 2098.7 1520.93 Q2096.89 1517.37 2093.26 1517.37 M2093.26 1513.66 Q2099.07 1513.66 2102.12 1518.27 Q2105.2 1522.85 2105.2 1531.6 Q2105.2 1540.33 2102.12 1544.94 Q2099.07 1549.52 2093.26 1549.52 Q2087.45 1549.52 2084.37 1544.94 Q2081.31 1540.33 2081.31 1531.6 Q2081.31 1522.85 2084.37 1518.27 Q2087.45 1513.66 2093.26 1513.66 Z" fill="#000000" fill-rule="evenodd" fill-opacity="1" /><path clip-path="url(#clip080)" d="M2117.45 1544.91 L2133.77 1544.91 L2133.77 1548.85 L2111.82 1548.85 L2111.82 1544.91 Q2114.48 1542.16 2119.07 1537.53 Q2123.67 1532.88 2124.85 1531.53 Q2127.1 1529.01 2127.98 1527.27 Q2128.88 1525.51 2128.88 1523.82 Q2128.88 1521.07 2126.94 1519.33 Q2125.02 1517.6 2121.91 1517.6 Q2119.72 1517.6 2117.26 1518.36 Q2114.83 1519.13 2112.05 1520.68 L2112.05 1515.95 Q2114.88 1514.82 2117.33 1514.24 Q2119.78 1513.66 2121.82 1513.66 Q2127.19 1513.66 2130.39 1516.35 Q2133.58 1519.03 2133.58 1523.52 Q2133.58 1525.65 2132.77 1527.57 Q2131.98 1529.47 2129.88 1532.07 Q2129.3 1532.74 2126.2 1535.95 Q2123.09 1539.15 2117.45 1544.91 Z" fill="#000000" fill-rule="evenodd" fill-opacity="1" /><path clip-path="url(#clip080)" d="M2147.61 1544.91 L2163.93 1544.91 L2163.93 1548.85 L2141.98 1548.85 L2141.98 1544.91 Q2144.65 1542.16 2149.23 1537.53 Q2153.84 1532.88 2155.02 1531.53 Q2157.26 1529.01 2158.14 1527.27 Q2159.04 1525.51 2159.04 1523.82 Q2159.04 1521.07 2157.1 1519.33 Q2155.18 1517.6 2152.08 1517.6 Q2149.88 1517.6 2147.42 1518.36 Q2144.99 1519.13 2142.22 1520.68 L2142.22 1515.95 Q2145.04 1514.82 2147.49 1514.24 Q2149.95 1513.66 2151.98 1513.66 Q2157.35 1513.66 2160.55 1516.35 Q2163.74 1519.03 2163.74 1523.52 Q2163.74 1525.65 2162.93 1527.57 Q2162.15 1529.47 2160.04 1532.07 Q2159.46 1532.74 2156.36 1535.95 Q2153.26 1539.15 2147.61 1544.91 Z" fill="#000000" fill-rule="evenodd" fill-opacity="1" /><path clip-path="url(#clip080)" d="M2170.99 1533.96 L2183.47 1533.96 L2183.47 1537.76 L2170.99 1537.76 L2170.99 1533.96 Z" fill="#000000" fill-rule="evenodd" fill-opacity="1" /><path clip-path="url(#clip080)" d="M2200.85 1517.37 Q2197.24 1517.37 2195.41 1520.93 Q2193.6 1524.47 2193.6 1531.6 Q2193.6 1538.71 2195.41 1542.27 Q2197.24 1545.82 2200.85 1545.82 Q2204.48 1545.82 2206.29 1542.27 Q2208.12 1538.71 2208.12 1531.6 Q2208.12 1524.47 2206.29 1520.93 Q2204.48 1517.37 2200.85 1517.37 M2200.85 1513.66 Q2206.66 1513.66 2209.71 1518.27 Q2212.79 1522.85 2212.79 1531.6 Q2212.79 1540.33 2209.71 1544.94 Q2206.66 1549.52 2200.85 1549.52 Q2195.04 1549.52 2191.96 1544.94 Q2188.9 1540.33 2188.9 1531.6 Q2188.9 1522.85 2191.96 1518.27 Q2195.04 1513.66 2200.85 1513.66 Z" fill="#000000" fill-rule="evenodd" fill-opacity="1" /><path clip-path="url(#clip080)" d="M2233.86 1518.36 L2222.05 1536.81 L2233.86 1536.81 L2233.86 1518.36 M2232.63 1514.29 L2238.51 1514.29 L2238.51 1536.81 L2243.44 1536.81 L2243.44 1540.7 L2238.51 1540.7 L2238.51 1548.85 L2233.86 1548.85 L2233.86 1540.7 L2218.26 1540.7 L2218.26 1536.19 L2232.63 1514.29 Z" fill="#000000" fill-rule="evenodd" fill-opacity="1" /><polyline clip-path="url(#clip082)" style="stroke:#000000; stroke-linecap:butt; stroke-linejoin:round; stroke-width:2; stroke-opacity:0.1; fill:none" points="
  202.177,1445.72 2352.76,1445.72 
  "/>
<polyline clip-path="url(#clip082)" style="stroke:#000000; stroke-linecap:butt; stroke-linejoin:round; stroke-width:2; stroke-opacity:0.1; fill:none" points="
  202.177,1130.11 2352.76,1130.11 
  "/>
<polyline clip-path="url(#clip082)" style="stroke:#000000; stroke-linecap:butt; stroke-linejoin:round; stroke-width:2; stroke-opacity:0.1; fill:none" points="
  202.177,814.503 2352.76,814.503 
  "/>
<polyline clip-path="url(#clip082)" style="stroke:#000000; stroke-linecap:butt; stroke-linejoin:round; stroke-width:2; stroke-opacity:0.1; fill:none" points="
  202.177,498.896 2352.76,498.896 
  "/>
<polyline clip-path="url(#clip082)" style="stroke:#000000; stroke-linecap:butt; stroke-linejoin:round; stroke-width:2; stroke-opacity:0.1; fill:none" points="
  202.177,183.289 2352.76,183.289 
  "/>
<polyline clip-path="url(#clip080)" style="stroke:#000000; stroke-linecap:butt; stroke-linejoin:round; stroke-width:4; stroke-opacity:1; fill:none" points="
  202.177,1486.45 202.177,47.2441 
  "/>
<polyline clip-path="url(#clip080)" style="stroke:#000000; stroke-linecap:butt; stroke-linejoin:round; stroke-width:4; stroke-opacity:1; fill:none" points="
  202.177,1445.72 221.074,1445.72 
  "/>
<polyline clip-path="url(#clip080)" style="stroke:#000000; stroke-linecap:butt; stroke-linejoin:round; stroke-width:4; stroke-opacity:1; fill:none" points="
  202.177,1130.11 221.074,1130.11 
  "/>
<polyline clip-path="url(#clip080)" style="stroke:#000000; stroke-linecap:butt; stroke-linejoin:round; stroke-width:4; stroke-opacity:1; fill:none" points="
  202.177,814.503 221.074,814.503 
  "/>
<polyline clip-path="url(#clip080)" style="stroke:#000000; stroke-linecap:butt; stroke-linejoin:round; stroke-width:4; stroke-opacity:1; fill:none" points="
  202.177,498.896 221.074,498.896 
  "/>
<polyline clip-path="url(#clip080)" style="stroke:#000000; stroke-linecap:butt; stroke-linejoin:round; stroke-width:4; stroke-opacity:1; fill:none" points="
  202.177,183.289 221.074,183.289 
  "/>
<path clip-path="url(#clip080)" d="M154.232 1431.51 Q150.621 1431.51 148.793 1435.08 Q146.987 1438.62 146.987 1445.75 Q146.987 1452.86 148.793 1456.42 Q150.621 1459.96 154.232 1459.96 Q157.867 1459.96 159.672 1456.42 Q161.501 1452.86 161.501 1445.75 Q161.501 1438.62 159.672 1435.08 Q157.867 1431.51 154.232 1431.51 M154.232 1427.81 Q160.042 1427.81 163.098 1432.42 Q166.177 1437 166.177 1445.75 Q166.177 1454.48 163.098 1459.08 Q160.042 1463.67 154.232 1463.67 Q148.422 1463.67 145.343 1459.08 Q142.288 1454.48 142.288 1445.75 Q142.288 1437 145.343 1432.42 Q148.422 1427.81 154.232 1427.81 Z" fill="#000000" fill-rule="evenodd" fill-opacity="1" /><path clip-path="url(#clip080)" d="M54.5569 1143.45 L62.1958 1143.45 L62.1958 1117.09 L53.8856 1118.76 L53.8856 1114.5 L62.1495 1112.83 L66.8254 1112.83 L66.8254 1143.45 L74.4642 1143.45 L74.4642 1147.39 L54.5569 1147.39 L54.5569 1143.45 Z" fill="#000000" fill-rule="evenodd" fill-opacity="1" /><path clip-path="url(#clip080)" d="M93.9086 1115.91 Q90.2975 1115.91 88.4688 1119.47 Q86.6632 1123.01 86.6632 1130.14 Q86.6632 1137.25 88.4688 1140.82 Q90.2975 1144.36 93.9086 1144.36 Q97.5428 1144.36 99.3483 1140.82 Q101.177 1137.25 101.177 1130.14 Q101.177 1123.01 99.3483 1119.47 Q97.5428 1115.91 93.9086 1115.91 M93.9086 1112.2 Q99.7187 1112.2 102.774 1116.81 Q105.853 1121.39 105.853 1130.14 Q105.853 1138.87 102.774 1143.48 Q99.7187 1148.06 93.9086 1148.06 Q88.0984 1148.06 85.0197 1143.48 Q81.9642 1138.87 81.9642 1130.14 Q81.9642 1121.39 85.0197 1116.81 Q88.0984 1112.2 93.9086 1112.2 Z" fill="#000000" fill-rule="evenodd" fill-opacity="1" /><path clip-path="url(#clip080)" d="M124.07 1115.91 Q120.459 1115.91 118.631 1119.47 Q116.825 1123.01 116.825 1130.14 Q116.825 1137.25 118.631 1140.82 Q120.459 1144.36 124.07 1144.36 Q127.705 1144.36 129.51 1140.82 Q131.339 1137.25 131.339 1130.14 Q131.339 1123.01 129.51 1119.47 Q127.705 1115.91 124.07 1115.91 M124.07 1112.2 Q129.881 1112.2 132.936 1116.81 Q136.015 1121.39 136.015 1130.14 Q136.015 1138.87 132.936 1143.48 Q129.881 1148.06 124.07 1148.06 Q118.26 1148.06 115.182 1143.48 Q112.126 1138.87 112.126 1130.14 Q112.126 1121.39 115.182 1116.81 Q118.26 1112.2 124.07 1112.2 Z" fill="#000000" fill-rule="evenodd" fill-opacity="1" /><path clip-path="url(#clip080)" d="M154.232 1115.91 Q150.621 1115.91 148.793 1119.47 Q146.987 1123.01 146.987 1130.14 Q146.987 1137.25 148.793 1140.82 Q150.621 1144.36 154.232 1144.36 Q157.867 1144.36 159.672 1140.82 Q161.501 1137.25 161.501 1130.14 Q161.501 1123.01 159.672 1119.47 Q157.867 1115.91 154.232 1115.91 M154.232 1112.2 Q160.042 1112.2 163.098 1116.81 Q166.177 1121.39 166.177 1130.14 Q166.177 1138.87 163.098 1143.48 Q160.042 1148.06 154.232 1148.06 Q148.422 1148.06 145.343 1143.48 Q142.288 1138.87 142.288 1130.14 Q142.288 1121.39 145.343 1116.81 Q148.422 1112.2 154.232 1112.2 Z" fill="#000000" fill-rule="evenodd" fill-opacity="1" /><path clip-path="url(#clip080)" d="M57.7745 827.847 L74.0939 827.847 L74.0939 831.783 L52.1495 831.783 L52.1495 827.847 Q54.8115 825.093 59.3949 820.463 Q64.0013 815.81 65.1819 814.468 Q67.4272 811.945 68.3068 810.209 Q69.2096 808.449 69.2096 806.76 Q69.2096 804.005 67.2652 802.269 Q65.3439 800.533 62.2421 800.533 Q60.043 800.533 57.5893 801.297 Q55.1588 802.061 52.381 803.611 L52.381 798.889 Q55.2051 797.755 57.6588 797.176 Q60.1124 796.598 62.1495 796.598 Q67.5198 796.598 70.7142 799.283 Q73.9087 801.968 73.9087 806.459 Q73.9087 808.588 73.0985 810.51 Q72.3115 812.408 70.205 815 Q69.6263 815.672 66.5245 818.889 Q63.4226 822.084 57.7745 827.847 Z" fill="#000000" fill-rule="evenodd" fill-opacity="1" /><path clip-path="url(#clip080)" d="M93.9086 800.301 Q90.2975 800.301 88.4688 803.866 Q86.6632 807.408 86.6632 814.537 Q86.6632 821.644 88.4688 825.209 Q90.2975 828.75 93.9086 828.75 Q97.5428 828.75 99.3483 825.209 Q101.177 821.644 101.177 814.537 Q101.177 807.408 99.3483 803.866 Q97.5428 800.301 93.9086 800.301 M93.9086 796.598 Q99.7187 796.598 102.774 801.204 Q105.853 805.787 105.853 814.537 Q105.853 823.264 102.774 827.871 Q99.7187 832.454 93.9086 832.454 Q88.0984 832.454 85.0197 827.871 Q81.9642 823.264 81.9642 814.537 Q81.9642 805.787 85.0197 801.204 Q88.0984 796.598 93.9086 796.598 Z" fill="#000000" fill-rule="evenodd" fill-opacity="1" /><path clip-path="url(#clip080)" d="M124.07 800.301 Q120.459 800.301 118.631 803.866 Q116.825 807.408 116.825 814.537 Q116.825 821.644 118.631 825.209 Q120.459 828.75 124.07 828.75 Q127.705 828.75 129.51 825.209 Q131.339 821.644 131.339 814.537 Q131.339 807.408 129.51 803.866 Q127.705 800.301 124.07 800.301 M124.07 796.598 Q129.881 796.598 132.936 801.204 Q136.015 805.787 136.015 814.537 Q136.015 823.264 132.936 827.871 Q129.881 832.454 124.07 832.454 Q118.26 832.454 115.182 827.871 Q112.126 823.264 112.126 814.537 Q112.126 805.787 115.182 801.204 Q118.26 796.598 124.07 796.598 Z" fill="#000000" fill-rule="evenodd" fill-opacity="1" /><path clip-path="url(#clip080)" d="M154.232 800.301 Q150.621 800.301 148.793 803.866 Q146.987 807.408 146.987 814.537 Q146.987 821.644 148.793 825.209 Q150.621 828.75 154.232 828.75 Q157.867 828.75 159.672 825.209 Q161.501 821.644 161.501 814.537 Q161.501 807.408 159.672 803.866 Q157.867 800.301 154.232 800.301 M154.232 796.598 Q160.042 796.598 163.098 801.204 Q166.177 805.787 166.177 814.537 Q166.177 823.264 163.098 827.871 Q160.042 832.454 154.232 832.454 Q148.422 832.454 145.343 827.871 Q142.288 823.264 142.288 814.537 Q142.288 805.787 145.343 801.204 Q148.422 796.598 154.232 796.598 Z" fill="#000000" fill-rule="evenodd" fill-opacity="1" /><path clip-path="url(#clip080)" d="M67.9133 497.542 Q71.2698 498.259 73.1448 500.528 Q75.0429 502.796 75.0429 506.13 Q75.0429 511.245 71.5244 514.046 Q68.0059 516.847 61.5245 516.847 Q59.3486 516.847 57.0338 516.407 Q54.7421 515.991 52.2884 515.134 L52.2884 510.62 Q54.2328 511.755 56.5477 512.333 Q58.8625 512.912 61.3856 512.912 Q65.7837 512.912 68.0754 511.176 Q70.3902 509.44 70.3902 506.13 Q70.3902 503.074 68.2374 501.361 Q66.1078 499.625 62.2884 499.625 L58.2606 499.625 L58.2606 495.783 L62.4735 495.783 Q65.9226 495.783 67.7513 494.417 Q69.58 493.028 69.58 490.435 Q69.58 487.773 67.6819 486.361 Q65.8069 484.926 62.2884 484.926 Q60.3671 484.926 58.168 485.343 Q55.969 485.76 53.3301 486.639 L53.3301 482.472 Q55.9921 481.732 58.3069 481.361 Q60.6449 480.991 62.705 480.991 Q68.0291 480.991 71.1309 483.422 Q74.2327 485.829 74.2327 489.949 Q74.2327 492.82 72.5892 494.81 Q70.9457 496.778 67.9133 497.542 Z" fill="#000000" fill-rule="evenodd" fill-opacity="1" /><path clip-path="url(#clip080)" d="M93.9086 484.695 Q90.2975 484.695 88.4688 488.259 Q86.6632 491.801 86.6632 498.931 Q86.6632 506.037 88.4688 509.602 Q90.2975 513.144 93.9086 513.144 Q97.5428 513.144 99.3483 509.602 Q101.177 506.037 101.177 498.931 Q101.177 491.801 99.3483 488.259 Q97.5428 484.695 93.9086 484.695 M93.9086 480.991 Q99.7187 480.991 102.774 485.597 Q105.853 490.181 105.853 498.931 Q105.853 507.658 102.774 512.264 Q99.7187 516.847 93.9086 516.847 Q88.0984 516.847 85.0197 512.264 Q81.9642 507.658 81.9642 498.931 Q81.9642 490.181 85.0197 485.597 Q88.0984 480.991 93.9086 480.991 Z" fill="#000000" fill-rule="evenodd" fill-opacity="1" /><path clip-path="url(#clip080)" d="M124.07 484.695 Q120.459 484.695 118.631 488.259 Q116.825 491.801 116.825 498.931 Q116.825 506.037 118.631 509.602 Q120.459 513.144 124.07 513.144 Q127.705 513.144 129.51 509.602 Q131.339 506.037 131.339 498.931 Q131.339 491.801 129.51 488.259 Q127.705 484.695 124.07 484.695 M124.07 480.991 Q129.881 480.991 132.936 485.597 Q136.015 490.181 136.015 498.931 Q136.015 507.658 132.936 512.264 Q129.881 516.847 124.07 516.847 Q118.26 516.847 115.182 512.264 Q112.126 507.658 112.126 498.931 Q112.126 490.181 115.182 485.597 Q118.26 480.991 124.07 480.991 Z" fill="#000000" fill-rule="evenodd" fill-opacity="1" /><path clip-path="url(#clip080)" d="M154.232 484.695 Q150.621 484.695 148.793 488.259 Q146.987 491.801 146.987 498.931 Q146.987 506.037 148.793 509.602 Q150.621 513.144 154.232 513.144 Q157.867 513.144 159.672 509.602 Q161.501 506.037 161.501 498.931 Q161.501 491.801 159.672 488.259 Q157.867 484.695 154.232 484.695 M154.232 480.991 Q160.042 480.991 163.098 485.597 Q166.177 490.181 166.177 498.931 Q166.177 507.658 163.098 512.264 Q160.042 516.847 154.232 516.847 Q148.422 516.847 145.343 512.264 Q142.288 507.658 142.288 498.931 Q142.288 490.181 145.343 485.597 Q148.422 480.991 154.232 480.991 Z" fill="#000000" fill-rule="evenodd" fill-opacity="1" /><path clip-path="url(#clip080)" d="M66.5939 170.084 L54.7884 188.532 L66.5939 188.532 L66.5939 170.084 M65.367 166.009 L71.2466 166.009 L71.2466 188.532 L76.1772 188.532 L76.1772 192.421 L71.2466 192.421 L71.2466 200.569 L66.5939 200.569 L66.5939 192.421 L50.9921 192.421 L50.9921 187.907 L65.367 166.009 Z" fill="#000000" fill-rule="evenodd" fill-opacity="1" /><path clip-path="url(#clip080)" d="M93.9086 169.088 Q90.2975 169.088 88.4688 172.653 Q86.6632 176.195 86.6632 183.324 Q86.6632 190.431 88.4688 193.995 Q90.2975 197.537 93.9086 197.537 Q97.5428 197.537 99.3483 193.995 Q101.177 190.431 101.177 183.324 Q101.177 176.195 99.3483 172.653 Q97.5428 169.088 93.9086 169.088 M93.9086 165.384 Q99.7187 165.384 102.774 169.991 Q105.853 174.574 105.853 183.324 Q105.853 192.051 102.774 196.657 Q99.7187 201.241 93.9086 201.241 Q88.0984 201.241 85.0197 196.657 Q81.9642 192.051 81.9642 183.324 Q81.9642 174.574 85.0197 169.991 Q88.0984 165.384 93.9086 165.384 Z" fill="#000000" fill-rule="evenodd" fill-opacity="1" /><path clip-path="url(#clip080)" d="M124.07 169.088 Q120.459 169.088 118.631 172.653 Q116.825 176.195 116.825 183.324 Q116.825 190.431 118.631 193.995 Q120.459 197.537 124.07 197.537 Q127.705 197.537 129.51 193.995 Q131.339 190.431 131.339 183.324 Q131.339 176.195 129.51 172.653 Q127.705 169.088 124.07 169.088 M124.07 165.384 Q129.881 165.384 132.936 169.991 Q136.015 174.574 136.015 183.324 Q136.015 192.051 132.936 196.657 Q129.881 201.241 124.07 201.241 Q118.26 201.241 115.182 196.657 Q112.126 192.051 112.126 183.324 Q112.126 174.574 115.182 169.991 Q118.26 165.384 124.07 165.384 Z" fill="#000000" fill-rule="evenodd" fill-opacity="1" /><path clip-path="url(#clip080)" d="M154.232 169.088 Q150.621 169.088 148.793 172.653 Q146.987 176.195 146.987 183.324 Q146.987 190.431 148.793 193.995 Q150.621 197.537 154.232 197.537 Q157.867 197.537 159.672 193.995 Q161.501 190.431 161.501 183.324 Q161.501 176.195 159.672 172.653 Q157.867 169.088 154.232 169.088 M154.232 165.384 Q160.042 165.384 163.098 169.991 Q166.177 174.574 166.177 183.324 Q166.177 192.051 163.098 196.657 Q160.042 201.241 154.232 201.241 Q148.422 201.241 145.343 196.657 Q142.288 192.051 142.288 183.324 Q142.288 174.574 145.343 169.991 Q148.422 165.384 154.232 165.384 Z" fill="#000000" fill-rule="evenodd" fill-opacity="1" /><path clip-path="url(#clip082)" d="
M320.462 1381.96 L320.462 1442.56 L494.463 1442.56 L494.463 1381.96 L320.462 1381.96 L320.462 1381.96  Z
  " fill="#009af9" fill-rule="evenodd" fill-opacity="1"/>
<polyline clip-path="url(#clip082)" style="stroke:#000000; stroke-linecap:butt; stroke-linejoin:round; stroke-width:4; stroke-opacity:1; fill:none" points="
  320.462,1381.96 320.462,1442.56 494.463,1442.56 494.463,1381.96 320.462,1381.96 
  "/>
<path clip-path="url(#clip082)" d="
M537.963 912.341 L537.963 1297.7 L711.964 1297.7 L711.964 912.341 L537.963 912.341 L537.963 912.341  Z
  " fill="#009af9" fill-rule="evenodd" fill-opacity="1"/>
<polyline clip-path="url(#clip082)" style="stroke:#000000; stroke-linecap:butt; stroke-linejoin:round; stroke-width:4; stroke-opacity:1; fill:none" points="
  537.963,912.341 537.963,1297.7 711.964,1297.7 711.964,912.341 537.963,912.341 
  "/>
<path clip-path="url(#clip082)" d="
M755.464 806.297 L755.464 1258.56 L929.465 1258.56 L929.465 806.297 L755.464 806.297 L755.464 806.297  Z
  " fill="#009af9" fill-rule="evenodd" fill-opacity="1"/>
<polyline clip-path="url(#clip082)" style="stroke:#000000; stroke-linecap:butt; stroke-linejoin:round; stroke-width:4; stroke-opacity:1; fill:none" points="
  755.464,806.297 755.464,1258.56 929.465,1258.56 929.465,806.297 755.464,806.297 
  "/>
<path clip-path="url(#clip082)" d="
M972.965 734.97 L972.965 1241.52 L1146.97 1241.52 L1146.97 734.97 L972.965 734.97 L972.965 734.97  Z
  " fill="#009af9" fill-rule="evenodd" fill-opacity="1"/>
<polyline clip-path="url(#clip082)" style="stroke:#000000; stroke-linecap:butt; stroke-linejoin:round; stroke-width:4; stroke-opacity:1; fill:none" points="
  972.965,734.97 972.965,1241.52 1146.97,1241.52 1146.97,734.97 972.965,734.97 
  "/>
<path clip-path="url(#clip082)" d="
M1190.47 258.404 L1190.47 925.28 L1364.47 925.28 L1364.47 258.404 L1190.47 258.404 L1190.47 258.404  Z
  " fill="#009af9" fill-rule="evenodd" fill-opacity="1"/>
<polyline clip-path="url(#clip082)" style="stroke:#000000; stroke-linecap:butt; stroke-linejoin:round; stroke-width:4; stroke-opacity:1; fill:none" points="
  1190.47,258.404 1190.47,925.28 1364.47,925.28 1364.47,258.404 1190.47,258.404 
  "/>
<path clip-path="url(#clip082)" d="
M1407.97 212.956 L1407.97 1054.05 L1581.97 1054.05 L1581.97 212.956 L1407.97 212.956 L1407.97 212.956  Z
  " fill="#009af9" fill-rule="evenodd" fill-opacity="1"/>
<polyline clip-path="url(#clip082)" style="stroke:#000000; stroke-linecap:butt; stroke-linejoin:round; stroke-width:4; stroke-opacity:1; fill:none" points="
  1407.97,212.956 1407.97,1054.05 1581.97,1054.05 1581.97,212.956 1407.97,212.956 
  "/>
<path clip-path="url(#clip082)" d="
M1625.47 327.837 L1625.47 1130.74 L1799.47 1130.74 L1799.47 327.837 L1625.47 327.837 L1625.47 327.837  Z
  " fill="#009af9" fill-rule="evenodd" fill-opacity="1"/>
<polyline clip-path="url(#clip082)" style="stroke:#000000; stroke-linecap:butt; stroke-linejoin:round; stroke-width:4; stroke-opacity:1; fill:none" points="
  1625.47,327.837 1625.47,1130.74 1799.47,1130.74 1799.47,327.837 1625.47,327.837 
  "/>
<path clip-path="url(#clip082)" d="
M1842.97 87.9763 L1842.97 970.097 L2016.97 970.097 L2016.97 87.9763 L1842.97 87.9763 L1842.97 87.9763  Z
  " fill="#009af9" fill-rule="evenodd" fill-opacity="1"/>
<polyline clip-path="url(#clip082)" style="stroke:#000000; stroke-linecap:butt; stroke-linejoin:round; stroke-width:4; stroke-opacity:1; fill:none" points="
  1842.97,87.9763 1842.97,970.097 2016.97,970.097 2016.97,87.9763 1842.97,87.9763 
  "/>
<path clip-path="url(#clip082)" d="
M2060.47 506.786 L2060.47 1059.73 L2234.47 1059.73 L2234.47 506.786 L2060.47 506.786 L2060.47 506.786  Z
  " fill="#009af9" fill-rule="evenodd" fill-opacity="1"/>
<polyline clip-path="url(#clip082)" style="stroke:#000000; stroke-linecap:butt; stroke-linejoin:round; stroke-width:4; stroke-opacity:1; fill:none" points="
  2060.47,506.786 2060.47,1059.73 2234.47,1059.73 2234.47,506.786 2060.47,506.786 
  "/>
<circle clip-path="url(#clip082)" style="fill:#009af9; stroke:none; fill-opacity:0" cx="407.463" cy="1381.96" r="2"/>
<circle clip-path="url(#clip082)" style="fill:#009af9; stroke:none; fill-opacity:0" cx="624.964" cy="912.341" r="2"/>
<circle clip-path="url(#clip082)" style="fill:#009af9; stroke:none; fill-opacity:0" cx="842.465" cy="806.297" r="2"/>
<circle clip-path="url(#clip082)" style="fill:#009af9; stroke:none; fill-opacity:0" cx="1059.97" cy="734.97" r="2"/>
<circle clip-path="url(#clip082)" style="fill:#009af9; stroke:none; fill-opacity:0" cx="1277.47" cy="258.404" r="2"/>
<circle clip-path="url(#clip082)" style="fill:#009af9; stroke:none; fill-opacity:0" cx="1494.97" cy="212.956" r="2"/>
<circle clip-path="url(#clip082)" style="fill:#009af9; stroke:none; fill-opacity:0" cx="1712.47" cy="327.837" r="2"/>
<circle clip-path="url(#clip082)" style="fill:#009af9; stroke:none; fill-opacity:0" cx="1929.97" cy="87.9763" r="2"/>
<circle clip-path="url(#clip082)" style="fill:#009af9; stroke:none; fill-opacity:0" cx="2147.47" cy="506.786" r="2"/>
<path clip-path="url(#clip082)" d="
M320.462 1442.56 L320.462 1445.72 L494.463 1445.72 L494.463 1442.56 L320.462 1442.56 L320.462 1442.56  Z
  " fill="#e26f46" fill-rule="evenodd" fill-opacity="1"/>
<polyline clip-path="url(#clip082)" style="stroke:#000000; stroke-linecap:butt; stroke-linejoin:round; stroke-width:4; stroke-opacity:1; fill:none" points="
  320.462,1442.56 320.462,1445.72 494.463,1445.72 494.463,1442.56 320.462,1442.56 
  "/>
<path clip-path="url(#clip082)" d="
M537.963 1297.7 L537.963 1445.72 L711.964 1445.72 L711.964 1297.7 L537.963 1297.7 L537.963 1297.7  Z
  " fill="#e26f46" fill-rule="evenodd" fill-opacity="1"/>
<polyline clip-path="url(#clip082)" style="stroke:#000000; stroke-linecap:butt; stroke-linejoin:round; stroke-width:4; stroke-opacity:1; fill:none" points="
  537.963,1297.7 537.963,1445.72 711.964,1445.72 711.964,1297.7 537.963,1297.7 
  "/>
<path clip-path="url(#clip082)" d="
M755.464 1258.56 L755.464 1445.72 L929.465 1445.72 L929.465 1258.56 L755.464 1258.56 L755.464 1258.56  Z
  " fill="#e26f46" fill-rule="evenodd" fill-opacity="1"/>
<polyline clip-path="url(#clip082)" style="stroke:#000000; stroke-linecap:butt; stroke-linejoin:round; stroke-width:4; stroke-opacity:1; fill:none" points="
  755.464,1258.56 755.464,1445.72 929.465,1445.72 929.465,1258.56 755.464,1258.56 
  "/>
<path clip-path="url(#clip082)" d="
M972.965 1241.52 L972.965 1445.72 L1146.97 1445.72 L1146.97 1241.52 L972.965 1241.52 L972.965 1241.52  Z
  " fill="#e26f46" fill-rule="evenodd" fill-opacity="1"/>
<polyline clip-path="url(#clip082)" style="stroke:#000000; stroke-linecap:butt; stroke-linejoin:round; stroke-width:4; stroke-opacity:1; fill:none" points="
  972.965,1241.52 972.965,1445.72 1146.97,1445.72 1146.97,1241.52 972.965,1241.52 
  "/>
<path clip-path="url(#clip082)" d="
M1190.47 925.28 L1190.47 1445.72 L1364.47 1445.72 L1364.47 925.28 L1190.47 925.28 L1190.47 925.28  Z
  " fill="#e26f46" fill-rule="evenodd" fill-opacity="1"/>
<polyline clip-path="url(#clip082)" style="stroke:#000000; stroke-linecap:butt; stroke-linejoin:round; stroke-width:4; stroke-opacity:1; fill:none" points="
  1190.47,925.28 1190.47,1445.72 1364.47,1445.72 1364.47,925.28 1190.47,925.28 
  "/>
<path clip-path="url(#clip082)" d="
M1407.97 1054.05 L1407.97 1445.72 L1581.97 1445.72 L1581.97 1054.05 L1407.97 1054.05 L1407.97 1054.05  Z
  " fill="#e26f46" fill-rule="evenodd" fill-opacity="1"/>
<polyline clip-path="url(#clip082)" style="stroke:#000000; stroke-linecap:butt; stroke-linejoin:round; stroke-width:4; stroke-opacity:1; fill:none" points="
  1407.97,1054.05 1407.97,1445.72 1581.97,1445.72 1581.97,1054.05 1407.97,1054.05 
  "/>
<path clip-path="url(#clip082)" d="
M1625.47 1130.74 L1625.47 1445.72 L1799.47 1445.72 L1799.47 1130.74 L1625.47 1130.74 L1625.47 1130.74  Z
  " fill="#e26f46" fill-rule="evenodd" fill-opacity="1"/>
<polyline clip-path="url(#clip082)" style="stroke:#000000; stroke-linecap:butt; stroke-linejoin:round; stroke-width:4; stroke-opacity:1; fill:none" points="
  1625.47,1130.74 1625.47,1445.72 1799.47,1445.72 1799.47,1130.74 1625.47,1130.74 
  "/>
<path clip-path="url(#clip082)" d="
M1842.97 970.097 L1842.97 1445.72 L2016.97 1445.72 L2016.97 970.097 L1842.97 970.097 L1842.97 970.097  Z
  " fill="#e26f46" fill-rule="evenodd" fill-opacity="1"/>
<polyline clip-path="url(#clip082)" style="stroke:#000000; stroke-linecap:butt; stroke-linejoin:round; stroke-width:4; stroke-opacity:1; fill:none" points="
  1842.97,970.097 1842.97,1445.72 2016.97,1445.72 2016.97,970.097 1842.97,970.097 
  "/>
<path clip-path="url(#clip082)" d="
M2060.47 1059.73 L2060.47 1445.72 L2234.47 1445.72 L2234.47 1059.73 L2060.47 1059.73 L2060.47 1059.73  Z
  " fill="#e26f46" fill-rule="evenodd" fill-opacity="1"/>
<polyline clip-path="url(#clip082)" style="stroke:#000000; stroke-linecap:butt; stroke-linejoin:round; stroke-width:4; stroke-opacity:1; fill:none" points="
  2060.47,1059.73 2060.47,1445.72 2234.47,1445.72 2234.47,1059.73 2060.47,1059.73 
  "/>
<circle clip-path="url(#clip082)" style="fill:#e26f46; stroke:none; fill-opacity:0" cx="407.463" cy="1442.56" r="2"/>
<circle clip-path="url(#clip082)" style="fill:#e26f46; stroke:none; fill-opacity:0" cx="624.964" cy="1297.7" r="2"/>
<circle clip-path="url(#clip082)" style="fill:#e26f46; stroke:none; fill-opacity:0" cx="842.465" cy="1258.56" r="2"/>
<circle clip-path="url(#clip082)" style="fill:#e26f46; stroke:none; fill-opacity:0" cx="1059.97" cy="1241.52" r="2"/>
<circle clip-path="url(#clip082)" style="fill:#e26f46; stroke:none; fill-opacity:0" cx="1277.47" cy="925.28" r="2"/>
<circle clip-path="url(#clip082)" style="fill:#e26f46; stroke:none; fill-opacity:0" cx="1494.97" cy="1054.05" r="2"/>
<circle clip-path="url(#clip082)" style="fill:#e26f46; stroke:none; fill-opacity:0" cx="1712.47" cy="1130.74" r="2"/>
<circle clip-path="url(#clip082)" style="fill:#e26f46; stroke:none; fill-opacity:0" cx="1929.97" cy="970.097" r="2"/>
<circle clip-path="url(#clip082)" style="fill:#e26f46; stroke:none; fill-opacity:0" cx="2147.47" cy="1059.73" r="2"/>
<path clip-path="url(#clip080)" d="
M1942.88 250.738 L2281.07 250.738 L2281.07 95.2176 L1942.88 95.2176  Z
  " fill="#ffffff" fill-rule="evenodd" fill-opacity="1"/>
<polyline clip-path="url(#clip080)" style="stroke:#000000; stroke-linecap:butt; stroke-linejoin:round; stroke-width:4; stroke-opacity:1; fill:none" points="
  1942.88,250.738 2281.07,250.738 2281.07,95.2176 1942.88,95.2176 1942.88,250.738 
  "/>
<path clip-path="url(#clip080)" d="
M1966.78 167.794 L2110.15 167.794 L2110.15 126.322 L1966.78 126.322 L1966.78 167.794  Z
  " fill="#009af9" fill-rule="evenodd" fill-opacity="1"/>
<polyline clip-path="url(#clip080)" style="stroke:#000000; stroke-linecap:butt; stroke-linejoin:round; stroke-width:4; stroke-opacity:1; fill:none" points="
  1966.78,167.794 2110.15,167.794 2110.15,126.322 1966.78,126.322 1966.78,167.794 
  "/>
<path clip-path="url(#clip080)" d="M2155.76 148.689 L2155.76 164.338 L2151.5 164.338 L2151.5 148.828 Q2151.5 145.148 2150.06 143.319 Q2148.63 141.49 2145.76 141.49 Q2142.31 141.49 2140.32 143.69 Q2138.33 145.889 2138.33 149.685 L2138.33 164.338 L2134.04 164.338 L2134.04 128.319 L2138.33 128.319 L2138.33 142.44 Q2139.85 140.102 2141.91 138.944 Q2144 137.787 2146.71 137.787 Q2151.17 137.787 2153.46 140.565 Q2155.76 143.319 2155.76 148.689 Z" fill="#000000" fill-rule="evenodd" fill-opacity="1" /><path clip-path="url(#clip080)" d="M2168.46 131.051 L2168.46 138.412 L2177.24 138.412 L2177.24 141.722 L2168.46 141.722 L2168.46 155.796 Q2168.46 158.967 2169.32 159.87 Q2170.2 160.773 2172.86 160.773 L2177.24 160.773 L2177.24 164.338 L2172.86 164.338 Q2167.93 164.338 2166.06 162.509 Q2164.18 160.657 2164.18 155.796 L2164.18 141.722 L2161.06 141.722 L2161.06 138.412 L2164.18 138.412 L2164.18 131.051 L2168.46 131.051 Z" fill="#000000" fill-rule="evenodd" fill-opacity="1" /><path clip-path="url(#clip080)" d="M2203.02 143.389 Q2204.62 140.518 2206.84 139.153 Q2209.07 137.787 2212.08 137.787 Q2216.13 137.787 2218.33 140.634 Q2220.52 143.458 2220.52 148.689 L2220.52 164.338 L2216.24 164.338 L2216.24 148.828 Q2216.24 145.102 2214.92 143.296 Q2213.6 141.49 2210.9 141.49 Q2207.58 141.49 2205.66 143.69 Q2203.74 145.889 2203.74 149.685 L2203.74 164.338 L2199.46 164.338 L2199.46 148.828 Q2199.46 145.078 2198.14 143.296 Q2196.82 141.49 2194.07 141.49 Q2190.8 141.49 2188.88 143.713 Q2186.96 145.912 2186.96 149.685 L2186.96 164.338 L2182.68 164.338 L2182.68 138.412 L2186.96 138.412 L2186.96 142.44 Q2188.42 140.055 2190.46 138.921 Q2192.49 137.787 2195.29 137.787 Q2198.12 137.787 2200.09 139.222 Q2202.08 140.657 2203.02 143.389 Z" fill="#000000" fill-rule="evenodd" fill-opacity="1" /><path clip-path="url(#clip080)" d="M2229.02 128.319 L2233.28 128.319 L2233.28 164.338 L2229.02 164.338 L2229.02 128.319 Z" fill="#000000" fill-rule="evenodd" fill-opacity="1" /><path clip-path="url(#clip080)" d="
M1966.78 219.634 L2110.15 219.634 L2110.15 178.162 L1966.78 178.162 L1966.78 219.634  Z
  " fill="#e26f46" fill-rule="evenodd" fill-opacity="1"/>
<polyline clip-path="url(#clip080)" style="stroke:#000000; stroke-linecap:butt; stroke-linejoin:round; stroke-width:4; stroke-opacity:1; fill:none" points="
  1966.78,219.634 2110.15,219.634 2110.15,178.162 1966.78,178.162 1966.78,219.634 
  "/>
<path clip-path="url(#clip080)" d="M2149.23 194.233 Q2148.51 193.817 2147.65 193.631 Q2146.82 193.423 2145.8 193.423 Q2142.19 193.423 2140.25 195.784 Q2138.33 198.122 2138.33 202.52 L2138.33 216.178 L2134.04 216.178 L2134.04 190.252 L2138.33 190.252 L2138.33 194.28 Q2139.67 191.918 2141.82 190.784 Q2143.97 189.627 2147.05 189.627 Q2147.49 189.627 2148.03 189.696 Q2148.56 189.743 2149.21 189.858 L2149.23 194.233 Z" fill="#000000" fill-rule="evenodd" fill-opacity="1" /><path clip-path="url(#clip080)" d="M2170.22 191.016 L2170.22 195.043 Q2168.42 194.117 2166.47 193.655 Q2164.53 193.192 2162.45 193.192 Q2159.28 193.192 2157.68 194.164 Q2156.1 195.136 2156.1 197.08 Q2156.1 198.562 2157.24 199.418 Q2158.37 200.252 2161.8 201.016 L2163.26 201.34 Q2167.79 202.312 2169.69 204.094 Q2171.61 205.854 2171.61 209.025 Q2171.61 212.636 2168.74 214.742 Q2165.9 216.849 2160.9 216.849 Q2158.81 216.849 2156.54 216.432 Q2154.3 216.039 2151.8 215.228 L2151.8 210.83 Q2154.16 212.057 2156.45 212.682 Q2158.74 213.284 2160.99 213.284 Q2164 213.284 2165.62 212.266 Q2167.24 211.224 2167.24 209.349 Q2167.24 207.613 2166.06 206.687 Q2164.9 205.761 2160.94 204.904 L2159.46 204.557 Q2155.5 203.724 2153.74 202.011 Q2151.98 200.275 2151.98 197.266 Q2151.98 193.608 2154.58 191.618 Q2157.17 189.627 2161.94 189.627 Q2164.3 189.627 2166.38 189.974 Q2168.46 190.321 2170.22 191.016 Z" fill="#000000" fill-rule="evenodd" fill-opacity="1" /><path clip-path="url(#clip080)" d="M2194.92 191.016 L2194.92 195.043 Q2193.12 194.117 2191.17 193.655 Q2189.23 193.192 2187.15 193.192 Q2183.97 193.192 2182.38 194.164 Q2180.8 195.136 2180.8 197.08 Q2180.8 198.562 2181.94 199.418 Q2183.07 200.252 2186.5 201.016 L2187.96 201.34 Q2192.49 202.312 2194.39 204.094 Q2196.31 205.854 2196.31 209.025 Q2196.31 212.636 2193.44 214.742 Q2190.59 216.849 2185.59 216.849 Q2183.51 216.849 2181.24 216.432 Q2179 216.039 2176.5 215.228 L2176.5 210.83 Q2178.86 212.057 2181.15 212.682 Q2183.44 213.284 2185.69 213.284 Q2188.7 213.284 2190.32 212.266 Q2191.94 211.224 2191.94 209.349 Q2191.94 207.613 2190.76 206.687 Q2189.6 205.761 2185.64 204.904 L2184.16 204.557 Q2180.2 203.724 2178.44 202.011 Q2176.68 200.275 2176.68 197.266 Q2176.68 193.608 2179.27 191.618 Q2181.87 189.627 2186.64 189.627 Q2189 189.627 2191.08 189.974 Q2193.16 190.321 2194.92 191.016 Z" fill="#000000" fill-rule="evenodd" fill-opacity="1" /></svg>
